# xmcd CD database file
#
# Track frame offsets:
#	300
#	16095
#	30626
#	39795
#	54622
#	67401
#	79841
#	93247
#	104856
#	117222
#
# Disc length: 1731 seconds
#
# Revision: 0
# Processed by: cddbd v1.5.2PL0 Copyright (c) Steve Scherf et al.
# Submitted via: CDex 1.51
#
DISCID=8106bf0a
DTITLE=BirdsAreAlive - MonstreNe
DYEAR=2014
DGENRE=Blues
TTITLE0=01 eyes closing on the ground
TTITLE1=02 monstre né
TTITLE2=03 a good joke
TTITLE3=04 around here
TTITLE4=05 stop and start
TTITLE5=06 the end of the box
TTITLE6=07 girls and shadows
TTITLE7=08 the sea and the trees
TTITLE8=09 look at the lines
TTITLE9=10 till the day i die
EXTD=YEAR: 2014
EXTT0=
EXTT1=
EXTT2=
EXTT3=
EXTT4=
EXTT5=
EXTT6=
EXTT7=
EXTT8=
EXTT9=
PLAYORDER=
